<mxfile host="app.diagrams.net" agent="Mozilla/5.0 (Windows NT 10.0; Win64; x64) AppleWebKit/537.36 (KHTML, like Gecko) Chrome/137.0.0.0 Safari/537.36" version="27.0.9">
  <diagram name="Page-1" id="mhcCw9Y-WHJ9YSm6l1Py">
    <mxGraphModel grid="1" page="1" gridSize="10" guides="1" tooltips="1" connect="1" arrows="1" fold="1" pageScale="1" pageWidth="827" pageHeight="1169" math="0" shadow="0">
      <root>
        <mxCell id="0" />
        <mxCell id="1" parent="0" />
        <mxCell id="g5N9hE3hsBz0X4arDoTH-1" value="360X Exchange Close Loop Referral" style="swimlane;html=1;childLayout=stackLayout;resizeParent=1;resizeParentMax=0;horizontal=1;startSize=20;horizontalStack=0;whiteSpace=wrap;" vertex="1" parent="1">
          <mxGeometry x="-20" y="40" width="1640" height="780" as="geometry" />
        </mxCell>
        <mxCell id="g5N9hE3hsBz0X4arDoTH-2" value="Referral Initiator" style="swimlane;html=1;startSize=20;horizontal=0;" vertex="1" parent="g5N9hE3hsBz0X4arDoTH-1">
          <mxGeometry y="20" width="1640" height="380" as="geometry" />
        </mxCell>
        <mxCell id="g5N9hE3hsBz0X4arDoTH-3" value="" style="edgeStyle=orthogonalEdgeStyle;rounded=0;orthogonalLoop=1;jettySize=auto;html=1;entryX=0;entryY=0.5;entryDx=0;entryDy=0;entryPerimeter=0;" edge="1" parent="g5N9hE3hsBz0X4arDoTH-2" source="g5N9hE3hsBz0X4arDoTH-4" target="g5N9hE3hsBz0X4arDoTH-6">
          <mxGeometry relative="1" as="geometry">
            <mxPoint x="155" y="160" as="targetPoint" />
          </mxGeometry>
        </mxCell>
        <mxCell id="g5N9hE3hsBz0X4arDoTH-4" value="" style="points=[[0.145,0.145,0],[0.5,0,0],[0.855,0.145,0],[1,0.5,0],[0.855,0.855,0],[0.5,1,0],[0.145,0.855,0],[0,0.5,0]];shape=mxgraph.bpmn.event;html=1;verticalLabelPosition=bottom;labelBackgroundColor=#ffffff;verticalAlign=top;align=center;perimeter=ellipsePerimeter;outlineConnect=0;aspect=fixed;outline=standard;symbol=general;" vertex="1" parent="g5N9hE3hsBz0X4arDoTH-2">
          <mxGeometry x="60" y="135" width="50" height="50" as="geometry" />
        </mxCell>
        <mxCell id="g5N9hE3hsBz0X4arDoTH-5" style="edgeStyle=orthogonalEdgeStyle;rounded=0;orthogonalLoop=1;jettySize=auto;html=1;" edge="1" parent="g5N9hE3hsBz0X4arDoTH-2" source="g5N9hE3hsBz0X4arDoTH-6">
          <mxGeometry relative="1" as="geometry">
            <mxPoint x="320" y="160" as="targetPoint" />
          </mxGeometry>
        </mxCell>
        <mxCell id="g5N9hE3hsBz0X4arDoTH-6" value="Complete Referral Form" style="points=[[0.25,0,0],[0.5,0,0],[0.75,0,0],[1,0.25,0],[1,0.5,0],[1,0.75,0],[0.75,1,0],[0.5,1,0],[0.25,1,0],[0,0.75,0],[0,0.5,0],[0,0.25,0]];shape=mxgraph.bpmn.task2;whiteSpace=wrap;rectStyle=rounded;size=10;html=1;container=1;expand=0;collapsible=0;taskMarker=user;" vertex="1" parent="g5N9hE3hsBz0X4arDoTH-2">
          <mxGeometry x="150" y="120" width="120" height="80" as="geometry" />
        </mxCell>
        <mxCell id="g5N9hE3hsBz0X4arDoTH-9" value="Submit Referral" style="points=[[0.25,0,0],[0.5,0,0],[0.75,0,0],[1,0.25,0],[1,0.5,0],[1,0.75,0],[0.75,1,0],[0.5,1,0],[0.25,1,0],[0,0.75,0],[0,0.5,0],[0,0.25,0]];shape=mxgraph.bpmn.task2;whiteSpace=wrap;rectStyle=rounded;size=10;html=1;container=1;expand=0;collapsible=0;taskMarker=send;" vertex="1" parent="g5N9hE3hsBz0X4arDoTH-2">
          <mxGeometry x="320" y="120" width="120" height="80" as="geometry" />
        </mxCell>
        <mxCell id="g5N9hE3hsBz0X4arDoTH-11" value="Referral Letter" style="shape=mxgraph.bpmn.data2;labelPosition=center;verticalLabelPosition=bottom;align=center;verticalAlign=top;size=15;html=1;bpmnTransferType=output;" vertex="1" parent="g5N9hE3hsBz0X4arDoTH-2">
          <mxGeometry x="260" y="30" width="40" height="60" as="geometry" />
        </mxCell>
        <mxCell id="g5N9hE3hsBz0X4arDoTH-12" style="edgeStyle=orthogonalEdgeStyle;rounded=0;orthogonalLoop=1;jettySize=auto;html=1;entryX=0;entryY=0.5;entryDx=0;entryDy=0;entryPerimeter=0;exitX=0.5;exitY=0;exitDx=0;exitDy=0;exitPerimeter=0;" edge="1" parent="g5N9hE3hsBz0X4arDoTH-2" source="g5N9hE3hsBz0X4arDoTH-6" target="g5N9hE3hsBz0X4arDoTH-11">
          <mxGeometry relative="1" as="geometry" />
        </mxCell>
        <mxCell id="g5N9hE3hsBz0X4arDoTH-19" value="Process Discharge Report" style="points=[[0.25,0,0],[0.5,0,0],[0.75,0,0],[1,0.25,0],[1,0.5,0],[1,0.75,0],[0.75,1,0],[0.5,1,0],[0.25,1,0],[0,0.75,0],[0,0.5,0],[0,0.25,0]];shape=mxgraph.bpmn.task2;whiteSpace=wrap;rectStyle=rounded;size=10;html=1;container=1;expand=0;collapsible=0;taskMarker=receive;" vertex="1" parent="g5N9hE3hsBz0X4arDoTH-2">
          <mxGeometry x="1494" y="135" width="120" height="80" as="geometry" />
        </mxCell>
        <mxCell id="g5N9hE3hsBz0X4arDoTH-20" value="" style="points=[[0.145,0.145,0],[0.5,0,0],[0.855,0.145,0],[1,0.5,0],[0.855,0.855,0],[0.5,1,0],[0.145,0.855,0],[0,0.5,0]];shape=mxgraph.bpmn.event;html=1;verticalLabelPosition=bottom;labelBackgroundColor=#ffffff;verticalAlign=top;align=center;perimeter=ellipsePerimeter;outlineConnect=0;aspect=fixed;outline=end;symbol=terminate;" vertex="1" parent="g5N9hE3hsBz0X4arDoTH-2">
          <mxGeometry x="1529" y="30" width="50" height="50" as="geometry" />
        </mxCell>
        <mxCell id="g5N9hE3hsBz0X4arDoTH-21" style="edgeStyle=orthogonalEdgeStyle;rounded=0;orthogonalLoop=1;jettySize=auto;html=1;" edge="1" parent="g5N9hE3hsBz0X4arDoTH-2" source="g5N9hE3hsBz0X4arDoTH-19" target="g5N9hE3hsBz0X4arDoTH-20">
          <mxGeometry relative="1" as="geometry" />
        </mxCell>
        <mxCell id="W1WzSocRWaV8S5QSeewT-10" style="edgeStyle=orthogonalEdgeStyle;rounded=0;orthogonalLoop=1;jettySize=auto;html=1;entryX=0.02;entryY=0.4;entryDx=0;entryDy=0;entryPerimeter=0;" edge="1" parent="g5N9hE3hsBz0X4arDoTH-2" source="W1WzSocRWaV8S5QSeewT-8" target="g5N9hE3hsBz0X4arDoTH-20">
          <mxGeometry relative="1" as="geometry">
            <Array as="points">
              <mxPoint x="695" y="50" />
            </Array>
          </mxGeometry>
        </mxCell>
        <mxCell id="W1WzSocRWaV8S5QSeewT-8" value="" style="points=[[0.145,0.145,0],[0.5,0,0],[0.855,0.145,0],[1,0.5,0],[0.855,0.855,0],[0.5,1,0],[0.145,0.855,0],[0,0.5,0]];shape=mxgraph.bpmn.event;html=1;verticalLabelPosition=bottom;labelBackgroundColor=#ffffff;verticalAlign=top;align=center;perimeter=ellipsePerimeter;outlineConnect=0;aspect=fixed;outline=standard;symbol=message;" vertex="1" parent="g5N9hE3hsBz0X4arDoTH-2">
          <mxGeometry x="670" y="270" width="50" height="50" as="geometry" />
        </mxCell>
        <mxCell id="W1WzSocRWaV8S5QSeewT-27" value="" style="points=[[0.145,0.145,0],[0.5,0,0],[0.855,0.145,0],[1,0.5,0],[0.855,0.855,0],[0.5,1,0],[0.145,0.855,0],[0,0.5,0]];shape=mxgraph.bpmn.event;html=1;verticalLabelPosition=bottom;labelBackgroundColor=#ffffff;verticalAlign=top;align=center;perimeter=ellipsePerimeter;outlineConnect=0;aspect=fixed;outline=standard;symbol=message;" vertex="1" parent="g5N9hE3hsBz0X4arDoTH-2">
          <mxGeometry x="1529" y="270" width="50" height="50" as="geometry" />
        </mxCell>
        <mxCell id="W1WzSocRWaV8S5QSeewT-30" style="edgeStyle=orthogonalEdgeStyle;rounded=0;orthogonalLoop=1;jettySize=auto;html=1;entryX=0.5;entryY=1;entryDx=0;entryDy=0;entryPerimeter=0;" edge="1" parent="g5N9hE3hsBz0X4arDoTH-2" source="W1WzSocRWaV8S5QSeewT-27" target="g5N9hE3hsBz0X4arDoTH-19">
          <mxGeometry relative="1" as="geometry" />
        </mxCell>
        <mxCell id="W1WzSocRWaV8S5QSeewT-38" value="Reject" style="points=[[0.145,0.145,0],[0.5,0,0],[0.855,0.145,0],[1,0.5,0],[0.855,0.855,0],[0.5,1,0],[0.145,0.855,0],[0,0.5,0]];shape=mxgraph.bpmn.event;html=1;verticalLabelPosition=bottom;labelBackgroundColor=#ffffff;verticalAlign=top;align=center;perimeter=ellipsePerimeter;outlineConnect=0;aspect=fixed;outline=end;symbol=message;" vertex="1" parent="g5N9hE3hsBz0X4arDoTH-2">
          <mxGeometry x="355" y="270" width="50" height="50" as="geometry" />
        </mxCell>
        <mxCell id="W1WzSocRWaV8S5QSeewT-41" style="edgeStyle=orthogonalEdgeStyle;rounded=0;orthogonalLoop=1;jettySize=auto;html=1;entryX=0.5;entryY=0;entryDx=0;entryDy=0;entryPerimeter=0;" edge="1" parent="g5N9hE3hsBz0X4arDoTH-2" source="g5N9hE3hsBz0X4arDoTH-9" target="W1WzSocRWaV8S5QSeewT-38">
          <mxGeometry relative="1" as="geometry" />
        </mxCell>
        <mxCell id="g5N9hE3hsBz0X4arDoTH-22" value="Referral Recipient" style="swimlane;html=1;startSize=20;horizontal=0;" vertex="1" parent="g5N9hE3hsBz0X4arDoTH-1">
          <mxGeometry y="400" width="1640" height="380" as="geometry" />
        </mxCell>
        <mxCell id="PTeG42SvYrZNoQo3uG_o-3" style="edgeStyle=orthogonalEdgeStyle;rounded=0;orthogonalLoop=1;jettySize=auto;html=1;" edge="1" parent="g5N9hE3hsBz0X4arDoTH-22" source="g5N9hE3hsBz0X4arDoTH-23" target="g5N9hE3hsBz0X4arDoTH-24">
          <mxGeometry relative="1" as="geometry" />
        </mxCell>
        <mxCell id="g5N9hE3hsBz0X4arDoTH-23" value="Receive Referral" style="points=[[0.25,0,0],[0.5,0,0],[0.75,0,0],[1,0.25,0],[1,0.5,0],[1,0.75,0],[0.75,1,0],[0.5,1,0],[0.25,1,0],[0,0.75,0],[0,0.5,0],[0,0.25,0]];shape=mxgraph.bpmn.task2;whiteSpace=wrap;rectStyle=rounded;size=10;html=1;container=1;expand=0;collapsible=0;taskMarker=receive;" vertex="1" parent="g5N9hE3hsBz0X4arDoTH-22">
          <mxGeometry x="320" y="160" width="120" height="80" as="geometry" />
        </mxCell>
        <mxCell id="g5N9hE3hsBz0X4arDoTH-24" value="Triage Referral" style="points=[[0.25,0,0],[0.5,0,0],[0.75,0,0],[1,0.25,0],[1,0.5,0],[1,0.75,0],[0.75,1,0],[0.5,1,0],[0.25,1,0],[0,0.75,0],[0,0.5,0],[0,0.25,0]];shape=mxgraph.bpmn.task2;whiteSpace=wrap;rectStyle=rounded;size=10;html=1;container=1;expand=0;collapsible=0;taskMarker=user;" vertex="1" parent="g5N9hE3hsBz0X4arDoTH-22">
          <mxGeometry x="490" y="160" width="120" height="80" as="geometry" />
        </mxCell>
        <mxCell id="g5N9hE3hsBz0X4arDoTH-25" style="edgeStyle=orthogonalEdgeStyle;rounded=0;orthogonalLoop=1;jettySize=auto;html=1;entryX=0;entryY=0.5;entryDx=0;entryDy=0;entryPerimeter=0;" edge="1" parent="g5N9hE3hsBz0X4arDoTH-22" source="W1WzSocRWaV8S5QSeewT-5" target="g5N9hE3hsBz0X4arDoTH-26">
          <mxGeometry relative="1" as="geometry">
            <mxPoint x="780" y="200" as="sourcePoint" />
          </mxGeometry>
        </mxCell>
        <mxCell id="g5N9hE3hsBz0X4arDoTH-26" value="Perform Procedure, Care&amp;nbsp;and Advice" style="points=[[0.25,0,0],[0.5,0,0],[0.75,0,0],[1,0.25,0],[1,0.5,0],[1,0.75,0],[0.75,1,0],[0.5,1,0],[0.25,1,0],[0,0.75,0],[0,0.5,0],[0,0.25,0]];shape=mxgraph.bpmn.task2;whiteSpace=wrap;rectStyle=rounded;size=10;html=1;container=1;expand=0;collapsible=0;taskMarker=user;" vertex="1" parent="g5N9hE3hsBz0X4arDoTH-22">
          <mxGeometry x="870" y="160" width="120" height="80" as="geometry" />
        </mxCell>
        <mxCell id="g5N9hE3hsBz0X4arDoTH-27" value="Prepare Discharge Report" style="points=[[0.25,0,0],[0.5,0,0],[0.75,0,0],[1,0.25,0],[1,0.5,0],[1,0.75,0],[0.75,1,0],[0.5,1,0],[0.25,1,0],[0,0.75,0],[0,0.5,0],[0,0.25,0]];shape=mxgraph.bpmn.task2;whiteSpace=wrap;rectStyle=rounded;size=10;html=1;container=1;expand=0;collapsible=0;taskMarker=user;" vertex="1" parent="g5N9hE3hsBz0X4arDoTH-22">
          <mxGeometry x="1320" y="160" width="120" height="80" as="geometry" />
        </mxCell>
        <mxCell id="g5N9hE3hsBz0X4arDoTH-28" style="edgeStyle=orthogonalEdgeStyle;rounded=0;orthogonalLoop=1;jettySize=auto;html=1;entryX=0;entryY=0.5;entryDx=0;entryDy=0;entryPerimeter=0;" edge="1" parent="g5N9hE3hsBz0X4arDoTH-22" source="W1WzSocRWaV8S5QSeewT-3" target="g5N9hE3hsBz0X4arDoTH-27">
          <mxGeometry relative="1" as="geometry" />
        </mxCell>
        <mxCell id="W1WzSocRWaV8S5QSeewT-22" value="Yes" style="edgeLabel;html=1;align=center;verticalAlign=middle;resizable=0;points=[];" connectable="0" vertex="1" parent="g5N9hE3hsBz0X4arDoTH-28">
          <mxGeometry x="-0.0119" y="2" relative="1" as="geometry">
            <mxPoint x="-2" y="-8" as="offset" />
          </mxGeometry>
        </mxCell>
        <mxCell id="g5N9hE3hsBz0X4arDoTH-29" value="Send Discharge Report" style="points=[[0.25,0,0],[0.5,0,0],[0.75,0,0],[1,0.25,0],[1,0.5,0],[1,0.75,0],[0.75,1,0],[0.5,1,0],[0.25,1,0],[0,0.75,0],[0,0.5,0],[0,0.25,0]];shape=mxgraph.bpmn.task2;whiteSpace=wrap;rectStyle=rounded;size=10;html=1;container=1;expand=0;collapsible=0;taskMarker=send;" vertex="1" parent="g5N9hE3hsBz0X4arDoTH-22">
          <mxGeometry x="1494" y="160" width="120" height="80" as="geometry" />
        </mxCell>
        <mxCell id="g5N9hE3hsBz0X4arDoTH-30" style="edgeStyle=orthogonalEdgeStyle;rounded=0;orthogonalLoop=1;jettySize=auto;html=1;entryX=0;entryY=0.5;entryDx=0;entryDy=0;entryPerimeter=0;" edge="1" parent="g5N9hE3hsBz0X4arDoTH-22" source="g5N9hE3hsBz0X4arDoTH-27" target="g5N9hE3hsBz0X4arDoTH-29">
          <mxGeometry relative="1" as="geometry" />
        </mxCell>
        <mxCell id="g5N9hE3hsBz0X4arDoTH-31" value="Discharge Report" style="shape=mxgraph.bpmn.data2;labelPosition=center;verticalLabelPosition=bottom;align=center;verticalAlign=top;size=15;html=1;bpmnTransferType=output;" vertex="1" parent="g5N9hE3hsBz0X4arDoTH-22">
          <mxGeometry x="1410" y="280" width="40" height="60" as="geometry" />
        </mxCell>
        <mxCell id="PTeG42SvYrZNoQo3uG_o-5" style="edgeStyle=orthogonalEdgeStyle;rounded=0;orthogonalLoop=1;jettySize=auto;html=1;entryX=0.5;entryY=1;entryDx=0;entryDy=0;entryPerimeter=0;" edge="1" parent="g5N9hE3hsBz0X4arDoTH-22" source="g5N9hE3hsBz0X4arDoTH-24">
          <mxGeometry relative="1" as="geometry">
            <mxPoint x="695" y="120" as="targetPoint" />
          </mxGeometry>
        </mxCell>
        <mxCell id="W1WzSocRWaV8S5QSeewT-1" value="" style="points=[[0.25,0.25,0],[0.5,0,0],[0.75,0.25,0],[1,0.5,0],[0.75,0.75,0],[0.5,1,0],[0.25,0.75,0],[0,0.5,0]];shape=mxgraph.bpmn.gateway2;html=1;verticalLabelPosition=bottom;labelBackgroundColor=#ffffff;verticalAlign=top;align=center;perimeter=rhombusPerimeter;outlineConnect=0;outline=none;symbol=none;gwType=exclusive;" vertex="1" parent="g5N9hE3hsBz0X4arDoTH-22">
          <mxGeometry x="670" y="175" width="50" height="50" as="geometry" />
        </mxCell>
        <mxCell id="W1WzSocRWaV8S5QSeewT-2" value="" style="edgeStyle=orthogonalEdgeStyle;rounded=0;orthogonalLoop=1;jettySize=auto;html=1;entryX=0;entryY=0.5;entryDx=0;entryDy=0;entryPerimeter=0;" edge="1" parent="g5N9hE3hsBz0X4arDoTH-22" source="g5N9hE3hsBz0X4arDoTH-24" target="W1WzSocRWaV8S5QSeewT-1">
          <mxGeometry relative="1" as="geometry">
            <mxPoint x="650" y="640" as="sourcePoint" />
            <mxPoint x="790" y="640" as="targetPoint" />
          </mxGeometry>
        </mxCell>
        <mxCell id="W1WzSocRWaV8S5QSeewT-3" value="Discharge?" style="points=[[0.25,0.25,0],[0.5,0,0],[0.75,0.25,0],[1,0.5,0],[0.75,0.75,0],[0.5,1,0],[0.25,0.75,0],[0,0.5,0]];shape=mxgraph.bpmn.gateway2;html=1;verticalLabelPosition=bottom;labelBackgroundColor=#ffffff;verticalAlign=top;align=center;perimeter=rhombusPerimeter;outlineConnect=0;outline=none;symbol=none;gwType=exclusive;" vertex="1" parent="g5N9hE3hsBz0X4arDoTH-22">
          <mxGeometry x="1214" y="175" width="50" height="50" as="geometry" />
        </mxCell>
        <mxCell id="W1WzSocRWaV8S5QSeewT-6" value="" style="edgeStyle=orthogonalEdgeStyle;rounded=0;orthogonalLoop=1;jettySize=auto;html=1;entryX=0;entryY=0.5;entryDx=0;entryDy=0;entryPerimeter=0;" edge="1" parent="g5N9hE3hsBz0X4arDoTH-22" source="W1WzSocRWaV8S5QSeewT-1" target="W1WzSocRWaV8S5QSeewT-5">
          <mxGeometry relative="1" as="geometry">
            <mxPoint x="750" y="640" as="sourcePoint" />
            <mxPoint x="1000" y="640" as="targetPoint" />
          </mxGeometry>
        </mxCell>
        <mxCell id="W1WzSocRWaV8S5QSeewT-19" value="Accept" style="edgeLabel;html=1;align=center;verticalAlign=middle;resizable=0;points=[];" connectable="0" vertex="1" parent="W1WzSocRWaV8S5QSeewT-6">
          <mxGeometry x="-0.1333" y="-3" relative="1" as="geometry">
            <mxPoint y="7" as="offset" />
          </mxGeometry>
        </mxCell>
        <mxCell id="W1WzSocRWaV8S5QSeewT-5" value="" style="points=[[0.25,0.25,0],[0.5,0,0],[0.75,0.25,0],[1,0.5,0],[0.75,0.75,0],[0.5,1,0],[0.25,0.75,0],[0,0.5,0]];shape=mxgraph.bpmn.gateway2;html=1;verticalLabelPosition=bottom;labelBackgroundColor=#ffffff;verticalAlign=top;align=center;perimeter=rhombusPerimeter;outlineConnect=0;outline=none;symbol=none;gwType=exclusive;" vertex="1" parent="g5N9hE3hsBz0X4arDoTH-22">
          <mxGeometry x="770" y="175" width="50" height="50" as="geometry" />
        </mxCell>
        <mxCell id="W1WzSocRWaV8S5QSeewT-7" value="Reject" style="points=[[0.145,0.145,0],[0.5,0,0],[0.855,0.145,0],[1,0.5,0],[0.855,0.855,0],[0.5,1,0],[0.145,0.855,0],[0,0.5,0]];shape=mxgraph.bpmn.event;html=1;verticalLabelPosition=bottom;labelBackgroundColor=#ffffff;verticalAlign=top;align=center;perimeter=ellipsePerimeter;outlineConnect=0;aspect=fixed;outline=end;symbol=message;" vertex="1" parent="g5N9hE3hsBz0X4arDoTH-22">
          <mxGeometry x="670" y="50" width="50" height="50" as="geometry" />
        </mxCell>
        <mxCell id="W1WzSocRWaV8S5QSeewT-13" style="edgeStyle=orthogonalEdgeStyle;rounded=0;orthogonalLoop=1;jettySize=auto;html=1;" edge="1" parent="g5N9hE3hsBz0X4arDoTH-22" source="W1WzSocRWaV8S5QSeewT-11" target="W1WzSocRWaV8S5QSeewT-3">
          <mxGeometry relative="1" as="geometry" />
        </mxCell>
        <mxCell id="W1WzSocRWaV8S5QSeewT-11" value="Send Consultation Note" style="points=[[0.25,0,0],[0.5,0,0],[0.75,0,0],[1,0.25,0],[1,0.5,0],[1,0.75,0],[0.75,1,0],[0.5,1,0],[0.25,1,0],[0,0.75,0],[0,0.5,0],[0,0.25,0]];shape=mxgraph.bpmn.task2;whiteSpace=wrap;rectStyle=rounded;size=10;html=1;container=1;expand=0;collapsible=0;taskMarker=send;" vertex="1" parent="g5N9hE3hsBz0X4arDoTH-22">
          <mxGeometry x="1040" y="160" width="120" height="80" as="geometry" />
        </mxCell>
        <mxCell id="W1WzSocRWaV8S5QSeewT-12" value="" style="edgeStyle=orthogonalEdgeStyle;rounded=0;orthogonalLoop=1;jettySize=auto;html=1;entryX=0;entryY=0.5;entryDx=0;entryDy=0;entryPerimeter=0;" edge="1" parent="g5N9hE3hsBz0X4arDoTH-22" source="g5N9hE3hsBz0X4arDoTH-26" target="W1WzSocRWaV8S5QSeewT-11">
          <mxGeometry relative="1" as="geometry">
            <mxPoint x="1040" y="640" as="sourcePoint" />
            <mxPoint x="1150" y="640" as="targetPoint" />
          </mxGeometry>
        </mxCell>
        <mxCell id="W1WzSocRWaV8S5QSeewT-14" style="edgeStyle=orthogonalEdgeStyle;rounded=0;orthogonalLoop=1;jettySize=auto;html=1;entryX=0;entryY=0.5;entryDx=0;entryDy=0;entryPerimeter=0;" edge="1" parent="g5N9hE3hsBz0X4arDoTH-22" source="g5N9hE3hsBz0X4arDoTH-27" target="g5N9hE3hsBz0X4arDoTH-31">
          <mxGeometry relative="1" as="geometry">
            <Array as="points">
              <mxPoint x="1380" y="310" />
            </Array>
          </mxGeometry>
        </mxCell>
        <mxCell id="W1WzSocRWaV8S5QSeewT-15" style="edgeStyle=orthogonalEdgeStyle;rounded=0;orthogonalLoop=1;jettySize=auto;html=1;exitX=0;exitY=0;exitDx=25;exitDy=0;exitPerimeter=0;entryX=0.5;entryY=0;entryDx=0;entryDy=0;entryPerimeter=0;" edge="1" parent="g5N9hE3hsBz0X4arDoTH-22" source="g5N9hE3hsBz0X4arDoTH-31" target="g5N9hE3hsBz0X4arDoTH-31">
          <mxGeometry relative="1" as="geometry" />
        </mxCell>
        <mxCell id="W1WzSocRWaV8S5QSeewT-18" style="edgeStyle=orthogonalEdgeStyle;rounded=0;orthogonalLoop=1;jettySize=auto;html=1;entryX=0.5;entryY=1;entryDx=0;entryDy=0;entryPerimeter=0;" edge="1" parent="g5N9hE3hsBz0X4arDoTH-22" source="W1WzSocRWaV8S5QSeewT-3" target="W1WzSocRWaV8S5QSeewT-5">
          <mxGeometry relative="1" as="geometry">
            <Array as="points">
              <mxPoint x="1239" y="320" />
              <mxPoint x="795" y="320" />
            </Array>
          </mxGeometry>
        </mxCell>
        <mxCell id="W1WzSocRWaV8S5QSeewT-21" value="No" style="edgeLabel;html=1;align=center;verticalAlign=middle;resizable=0;points=[];" connectable="0" vertex="1" parent="W1WzSocRWaV8S5QSeewT-18">
          <mxGeometry x="-0.9369" y="-2" relative="1" as="geometry">
            <mxPoint x="2" y="25" as="offset" />
          </mxGeometry>
        </mxCell>
        <mxCell id="W1WzSocRWaV8S5QSeewT-25" value="Consultation Note" style="points=[[0.145,0.145,0],[0.5,0,0],[0.855,0.145,0],[1,0.5,0],[0.855,0.855,0],[0.5,1,0],[0.145,0.855,0],[0,0.5,0]];shape=mxgraph.bpmn.event;html=1;verticalLabelPosition=bottom;labelBackgroundColor=#ffffff;verticalAlign=top;align=center;perimeter=ellipsePerimeter;outlineConnect=0;aspect=fixed;outline=end;symbol=message;" vertex="1" parent="g5N9hE3hsBz0X4arDoTH-22">
          <mxGeometry x="1075" y="50" width="50" height="50" as="geometry" />
        </mxCell>
        <mxCell id="W1WzSocRWaV8S5QSeewT-17" style="edgeStyle=orthogonalEdgeStyle;rounded=0;orthogonalLoop=1;jettySize=auto;html=1;entryX=0.5;entryY=1;entryDx=0;entryDy=0;entryPerimeter=0;" edge="1" parent="g5N9hE3hsBz0X4arDoTH-22" source="W1WzSocRWaV8S5QSeewT-11" target="W1WzSocRWaV8S5QSeewT-25">
          <mxGeometry relative="1" as="geometry">
            <mxPoint x="1100" y="-50" as="targetPoint" />
          </mxGeometry>
        </mxCell>
        <mxCell id="W1WzSocRWaV8S5QSeewT-31" value="Discharge Report" style="points=[[0.145,0.145,0],[0.5,0,0],[0.855,0.145,0],[1,0.5,0],[0.855,0.855,0],[0.5,1,0],[0.145,0.855,0],[0,0.5,0]];shape=mxgraph.bpmn.event;html=1;verticalLabelPosition=bottom;labelBackgroundColor=#ffffff;verticalAlign=top;align=center;perimeter=ellipsePerimeter;outlineConnect=0;aspect=fixed;outline=end;symbol=message;" vertex="1" parent="g5N9hE3hsBz0X4arDoTH-22">
          <mxGeometry x="1529" y="50" width="50" height="50" as="geometry" />
        </mxCell>
        <mxCell id="W1WzSocRWaV8S5QSeewT-33" style="edgeStyle=orthogonalEdgeStyle;rounded=0;orthogonalLoop=1;jettySize=auto;html=1;entryX=0.5;entryY=1;entryDx=0;entryDy=0;entryPerimeter=0;" edge="1" parent="g5N9hE3hsBz0X4arDoTH-22" source="g5N9hE3hsBz0X4arDoTH-29" target="W1WzSocRWaV8S5QSeewT-31">
          <mxGeometry relative="1" as="geometry" />
        </mxCell>
        <mxCell id="W1WzSocRWaV8S5QSeewT-34" value="" style="points=[[0.145,0.145,0],[0.5,0,0],[0.855,0.145,0],[1,0.5,0],[0.855,0.855,0],[0.5,1,0],[0.145,0.855,0],[0,0.5,0]];shape=mxgraph.bpmn.event;html=1;verticalLabelPosition=bottom;labelBackgroundColor=#ffffff;verticalAlign=top;align=center;perimeter=ellipsePerimeter;outlineConnect=0;aspect=fixed;outline=standard;symbol=message;" vertex="1" parent="g5N9hE3hsBz0X4arDoTH-22">
          <mxGeometry x="355" y="50" width="50" height="50" as="geometry" />
        </mxCell>
        <mxCell id="W1WzSocRWaV8S5QSeewT-35" style="edgeStyle=orthogonalEdgeStyle;rounded=0;orthogonalLoop=1;jettySize=auto;html=1;entryX=0.5;entryY=0;entryDx=0;entryDy=0;entryPerimeter=0;" edge="1" parent="g5N9hE3hsBz0X4arDoTH-22" source="W1WzSocRWaV8S5QSeewT-34" target="g5N9hE3hsBz0X4arDoTH-23">
          <mxGeometry relative="1" as="geometry" />
        </mxCell>
        <mxCell id="W1WzSocRWaV8S5QSeewT-36" value="Consultation Note" style="shape=mxgraph.bpmn.data2;labelPosition=center;verticalLabelPosition=bottom;align=center;verticalAlign=top;size=15;html=1;bpmnTransferType=output;" vertex="1" parent="g5N9hE3hsBz0X4arDoTH-22">
          <mxGeometry x="970" y="45" width="40" height="60" as="geometry" />
        </mxCell>
        <mxCell id="W1WzSocRWaV8S5QSeewT-37" style="edgeStyle=orthogonalEdgeStyle;rounded=0;orthogonalLoop=1;jettySize=auto;html=1;entryX=0;entryY=0.5;entryDx=0;entryDy=0;entryPerimeter=0;" edge="1" parent="g5N9hE3hsBz0X4arDoTH-22" source="g5N9hE3hsBz0X4arDoTH-26" target="W1WzSocRWaV8S5QSeewT-36">
          <mxGeometry relative="1" as="geometry" />
        </mxCell>
        <mxCell id="W1WzSocRWaV8S5QSeewT-9" style="edgeStyle=orthogonalEdgeStyle;rounded=0;orthogonalLoop=1;jettySize=auto;html=1;entryX=0.5;entryY=1;entryDx=0;entryDy=0;entryPerimeter=0;" edge="1" parent="g5N9hE3hsBz0X4arDoTH-1" source="W1WzSocRWaV8S5QSeewT-7" target="W1WzSocRWaV8S5QSeewT-8">
          <mxGeometry relative="1" as="geometry" />
        </mxCell>
        <mxCell id="W1WzSocRWaV8S5QSeewT-32" style="edgeStyle=orthogonalEdgeStyle;rounded=0;orthogonalLoop=1;jettySize=auto;html=1;entryX=0.5;entryY=1;entryDx=0;entryDy=0;entryPerimeter=0;" edge="1" parent="g5N9hE3hsBz0X4arDoTH-1" source="W1WzSocRWaV8S5QSeewT-31" target="W1WzSocRWaV8S5QSeewT-27">
          <mxGeometry relative="1" as="geometry" />
        </mxCell>
        <mxCell id="W1WzSocRWaV8S5QSeewT-42" style="edgeStyle=orthogonalEdgeStyle;rounded=0;orthogonalLoop=1;jettySize=auto;html=1;entryX=0.5;entryY=0;entryDx=0;entryDy=0;entryPerimeter=0;" edge="1" parent="g5N9hE3hsBz0X4arDoTH-1" source="W1WzSocRWaV8S5QSeewT-38" target="W1WzSocRWaV8S5QSeewT-34">
          <mxGeometry relative="1" as="geometry" />
        </mxCell>
      </root>
    </mxGraphModel>
  </diagram>
</mxfile>
